<?xml version="1.0" encoding="utf-8"?>
<!-- Generator: Adobe Illustrator 22.1.0, SVG Export Plug-In . SVG Version: 6.00 Build 0)  -->
<svg version="1.1" id="Camada_1" xmlns="http://www.w3.org/2000/svg" xmlns:xlink="http://www.w3.org/1999/xlink" x="0px" y="0px"
	 viewBox="0 0 1835 356" style="enable-background:new 0 0 1835 356;" xml:space="preserve">
<style type="text/css">
	.st0{fill:#4DCE59;}
	.st1{fill:#009245;}
	.st2{fill:#39B54A;stroke:#39B54A;stroke-width:15;stroke-linecap:round;stroke-linejoin:round;stroke-miterlimit:10;}
</style>
<g>
	<g>
		<path class="st0" d="M330.3,136.3l39.2-11.2c0,0,0.5,21.2-10.8,32.3c0,0,1.6,25-26.3,24.8"/>
	</g>
	<g>
		<path class="st0" d="M332.8,190.9c-0.2,0-0.3,0-0.5,0c-4.7,0-8.4-4-8.4-8.8c0-4.8,3.8-8.7,8.5-8.7c0.1,0,0.3,0,0.4,0
			c6.2,0,10.8-1.5,13.6-4.6c4-4.3,3.8-10.9,3.8-11c-0.2-2.6,0.8-5.1,2.7-6.9c3.6-3.5,5.7-8.9,6.8-14l-27.1,7.8
			c-4.5,1.3-9.2-1.4-10.4-6.1c-1.2-4.7,1.4-9.5,5.9-10.8l39.2-11.2c2.5-0.7,5.2-0.2,7.3,1.4c2.1,1.6,3.4,4.1,3.4,6.8
			c0.1,2.4,0.2,22.5-10.9,36.1c-0.4,4.9-2.1,13.1-8.3,19.8C352.7,187.5,343.9,190.9,332.8,190.9z"/>
	</g>
</g>
<g>
	<g>
		<path class="st1" d="M93.7,122.8l-68.9-9.9c0,0,7.3,30.2,23.5,44.6c0,0-0.2,34.2,48.8,31.4"/>
	</g>
	<g>
		<path class="st1" d="M91.4,197.8c-17.1,0-30.4-4.4-39.6-13.2c-8.6-8.1-11.2-17.7-12-23.1C23.7,145,16.6,116.3,16.2,115
			c-0.7-2.8,0.1-5.8,2-8c2-2.2,4.9-3.2,7.7-2.8l68.9,9.9c4.8,0.7,8.1,5.1,7.4,9.9s-5.1,8.1-9.9,7.4l-55-7.9
			c3.4,8.9,9,20.5,16.7,27.4c1.9,1.7,3,4.1,2.9,6.6c0,0.2,0.2,8.2,7,14.5c6.7,6.2,17.6,8.9,32.5,8c4.8-0.3,9,3.4,9.3,8.2
			c0.3,4.8-3.4,9-8.2,9.3C95.5,197.8,93.4,197.8,91.4,197.8z"/>
	</g>
</g>
<g>
	<g>
		<path class="st2" d="M193.3,139.6"/>
	</g>
</g>
<g>
	<path class="st0" d="M102.4,150.4c0,0-14.1-136.4,106.2-135.1s131.6,127.5,131.6,127.5v113.9c0,0-3.6,93.4-127.8,87.2
		C212.5,343.8,101.1,348.8,102.4,150.4z"/>
</g>
<g>
	<path class="st1" d="M96.3,151.9c0,0-12.9-128.6,97-127.4s120.2,120.2,120.2,120.2v107.4c0,0-3.3,88.1-116.7,82.2
		C196.8,334.3,95.1,339,96.3,151.9z"/>
</g>
<g>
	<path class="st1" d="M207.1,343.4c-3.4,0-6.8-0.1-10.4-0.3c-4.3,0.1-32.9-0.5-59.9-26.5c-33.1-31.9-49.7-87.1-49.3-164.3
		c-0.6-6.6-5-68.5,30.2-107c18.3-20,43.7-30,75.8-29.6c31.9,0.3,57.9,10.8,77.3,31.1c37.3,39.1,36.7,100.8,36.6,107.3l5.8,94.3
		c0.1,1.6,2.2,38.9-25.2,66.6C269.4,333.9,242.2,343.4,207.1,343.4z M196.9,325.5l0.4,0c35.1,1.8,61.4-5.9,78.2-22.8
		c21.9-22.2,20.2-52.9,20.2-53.2l-5.9-95.2l0-0.4c0-0.6,1.7-60.1-31.8-95.1c-16-16.7-37.8-25.4-64.8-25.6
		c-26.7-0.3-47.8,7.7-62.6,23.8c-31.1,34-25.7,93.4-25.7,94l0,0.5l0,0.5c-0.4,71.4,14.7,124,43.9,152c23.3,22.4,47.2,21.6,47.5,21.6
		L196.9,325.5z"/>
</g>
<g>
	<g>
		<rect x="156.6" y="136.7" class="st1" width="60.7" height="40.9"/>
	</g>
	<g>
		<path class="st0" d="M217.3,183.5h-60.7c-3.2,0-5.8-2.6-5.8-5.8v-40.9c0-3.2,2.6-5.8,5.8-5.8h60.7c3.2,0,5.8,2.6,5.8,5.8v40.9
			C223.2,180.9,220.5,183.5,217.3,183.5z M162.4,171.8h49v-29.2h-49V171.8z"/>
	</g>
</g>
<g>
	<g>
		<rect x="259.5" y="136.7" class="st1" width="60.7" height="40.9"/>
	</g>
	<g>
		<path class="st0" d="M320.2,183.5h-60.7c-3.2,0-5.8-2.6-5.8-5.8v-40.9c0-3.2,2.6-5.8,5.8-5.8h60.7c3.2,0,5.8,2.6,5.8,5.8v40.9
			C326,180.9,323.4,183.5,320.2,183.5z M265.3,171.8h49v-29.2h-49V171.8z"/>
	</g>
</g>
<g>
	<g>
		<line class="st1" x1="218.5" y1="151" x2="259.4" y2="151"/>
	</g>
	<g>
		<path class="st0" d="M259.4,156.8h-40.9c-3.2,0-5.8-2.6-5.8-5.8s2.6-5.8,5.8-5.8h40.9c3.2,0,5.8,2.6,5.8,5.8
			S262.6,156.8,259.4,156.8z"/>
	</g>
</g>
<g>
	<g>
		<polygon class="st0" points="190.7,258 197.3,223.8 213.1,256.8 		"/>
	</g>
	<g>
		<path class="st0" d="M213.9,262.6c-0.1,0-0.2,0-0.4,0l-22.4,1.2c-1.6,0.1-3.1-0.7-4.2-2.2s-1.5-3.4-1.1-5.2l6.6-34.2
			c0.4-2.3,2.1-4,4-4.2c2-0.2,4,1,5,3.1l15.8,33c0.8,1.8,0.9,3.9,0.1,5.6C216.8,261.3,215.4,262.4,213.9,262.6z M197,251.8l8-0.4
			l-5.6-11.7L197,251.8z"/>
	</g>
</g>
<g>
	<g>
		<polygon class="st0" points="288.6,258 295.2,223.8 311,256.8 		"/>
	</g>
	<g>
		<path class="st0" d="M311.8,262.6c-0.1,0-0.2,0-0.4,0l-22.4,1.2c-1.6,0.1-3.1-0.7-4.2-2.2s-1.5-3.4-1.1-5.2l6.6-34.2
			c0.4-2.3,2.1-4,4-4.2c2-0.2,4,1,5,3.1l15.8,33c0.8,1.8,0.9,3.9,0.1,5.6C314.7,261.3,313.3,262.4,311.8,262.6z M294.9,251.8l8-0.4
			l-5.6-11.7L294.9,251.8z"/>
	</g>
</g>
<g>
	<g>
		<path class="st0" d="M320.2,266.5H156.5c-3.2,0-5.8-2.6-5.8-5.8c0-3.2,2.6-5.8,5.8-5.8h163.7c3.2,0,5.8,2.6,5.8,5.8
			C326,263.9,323.4,266.5,320.2,266.5z"/>
	</g>
</g>
<g>
	<path class="st1" d="M515.9,265.2c-13.8-11.6-21.1-28.7-22-51.3c-0.2-4.7-0.3-12-0.3-21.7c0-9.8,0.1-17.1,0.3-22
		c0.7-22.2,8-39.4,22.1-51.4c14.1-12,32.9-18.1,56.5-18.1c23.4,0,42.1,6,56.2,18.1c14.1,12,21.4,29.2,22.1,51.4
		c0.3,9.8,0.5,17.1,0.5,22c0,5.1-0.2,12.3-0.5,21.7c-0.8,22.6-8.1,39.7-21.8,51.3c-13.7,11.6-32.5,17.4-56.5,17.4
		C548.6,282.7,529.7,276.9,515.9,265.2z M593.5,236.8c5.2-5.3,8-13.4,8.3-24.4c0.3-9.8,0.5-16.8,0.5-21c0-4.2-0.2-11-0.5-20.5
		c-0.3-10.9-3.1-19.1-8.3-24.4c-5.2-5.3-12.2-8-21-8c-8.9,0-16,2.7-21.2,8c-5.2,5.3-8,13.4-8.3,24.4c-0.2,4.7-0.3,11.5-0.3,20.5
		c0,9.1,0.1,16.1,0.3,21c0.3,10.9,3.1,19.1,8.3,24.4c5.2,5.3,12.3,8,21.2,8C581.3,244.8,588.3,242.1,593.5,236.8z"/>
	<path class="st1" d="M696.9,278.3c-1.3-1.3-1.9-2.7-1.9-4.4V109.9c0-1.9,0.6-3.4,1.8-4.7c1.2-1.3,2.7-1.9,4.5-1.9h69.5
		c22.2,0,39.6,5.1,52.2,15.2c12.5,10.1,18.8,24.3,18.8,42.7c0,11.8-2.7,21.8-8.2,30.1c-5.5,8.3-13,14.7-22.6,19.2l34.1,61.6
		c0.5,1,0.8,1.9,0.8,2.8c0,1.4-0.5,2.6-1.5,3.7c-1,1.1-2.3,1.6-3.8,1.6h-35.6c-4.9,0-8.3-2.3-10.4-6.8l-27.8-54.8h-24.2v55.3
		c0,1.9-0.6,3.4-1.9,4.5c-1.3,1.2-2.8,1.8-4.7,1.8h-34.6C699.6,280.1,698.2,279.5,696.9,278.3z M770.5,181.4
		c7.2,0,12.8-1.8,16.5-5.4c3.8-3.6,5.7-8.6,5.7-15c0-6.4-1.9-11.5-5.7-15.4c-3.8-3.9-9.3-5.8-16.5-5.8h-28v41.7H770.5z"/>
	<path class="st1" d="M906.6,265.2c-13.7-11.6-21-28.6-21.9-51c-0.2-4.5-0.3-12-0.3-22.2c0-10.4,0.1-18,0.3-22.7
		c0.8-21.9,8.2-38.8,22.1-50.6c13.9-11.9,32.7-17.8,56.5-17.8c15,0,28.4,2.4,40.3,7.3c11.9,4.9,21.3,12,28.2,21.2
		c6.9,9.3,10.5,20.2,10.9,32.8c0,1.5-0.5,2.8-1.6,3.8c-1.1,1-2.4,1.5-3.9,1.5h-35.9c-2.4,0-4.1-0.5-5.2-1.4
		c-1.1-0.9-2.1-2.7-2.9-5.2c-2.4-8.2-5.9-14-10.7-17.3c-4.8-3.3-11.2-4.9-19.1-4.9c-19,0-28.9,10.6-29.6,31.8
		c-0.2,4.5-0.3,11.5-0.3,21c0,9.4,0.1,16.6,0.3,21.5c0.7,21.2,10.5,31.8,29.6,31.8c7.7,0,14.1-1.7,19.1-5.1c5-3.4,8.5-9.1,10.7-17.2
		c0.7-2.5,1.6-4.3,2.8-5.2c1.2-0.9,2.9-1.4,5.3-1.4h35.9c1.5,0,2.8,0.5,3.9,1.5c1.1,1,1.6,2.3,1.6,3.8c-0.3,12.6-4,23.6-10.9,32.8
		c-6.9,9.3-16.3,16.3-28.2,21.2c-11.9,4.9-25.3,7.3-40.3,7.3C939.2,282.7,920.3,276.9,906.6,265.2z"/>
	<path class="st1" d="M1109.9,277.7c-1.8-1.6-2.8-3.6-3.2-5.9l-27-161.7c-0.2-0.3-0.3-0.8-0.3-1.5c0-1.3,0.5-2.6,1.6-3.7
		c1.1-1.1,2.3-1.6,3.7-1.6h33.1c4.9,0,7.6,1.9,8.1,5.8l15.4,95.5l17.4-55.3c1.3-4.5,4.1-6.8,8.3-6.8h18.9c4.2,0,7,2.3,8.3,6.8
		l17.4,55.1l15.7-95.2c0.3-2,1.1-3.5,2.3-4.4c1.2-0.9,3-1.4,5.6-1.4h33.1c1.5,0,2.8,0.5,3.8,1.6c1,1.1,1.5,2.3,1.5,3.7v1.5
		l-27,161.7c-0.3,2.4-1.4,4.3-3.3,5.9c-1.9,1.6-4.1,2.4-6.8,2.4h-25.5c-2.7,0-4.8-0.7-6.3-2c-1.5-1.3-2.5-2.9-3-4.5l-25-70l-25,70
		c-0.7,1.7-1.8,3.2-3.3,4.5c-1.5,1.4-3.6,2-6.3,2h-25.3C1114,280.1,1111.7,279.3,1109.9,277.7z"/>
	<path class="st1" d="M1298.3,278.5c-1.1-1.1-1.6-2.3-1.6-3.7c0-1,0.1-1.8,0.3-2.3l58.9-161.9c1.7-4.9,5.1-7.3,10.1-7.3h39.4
		c5.1,0,8.4,2.4,10.1,7.3l58.9,161.9c0.2,0.5,0.3,1.3,0.3,2.3c0,1.4-0.5,2.6-1.6,3.7c-1.1,1.1-2.3,1.6-3.7,1.6h-32.8
		c-4,0-6.9-1.9-8.6-5.6l-9.1-24.5h-66.2l-9.1,24.5c-1.7,3.7-4.5,5.6-8.6,5.6H1302C1300.6,280.1,1299.4,279.6,1298.3,278.5z
		 M1363.1,212.2h45l-22.5-64.4L1363.1,212.2z"/>
	<path class="st1" d="M1515.8,278.3c-1.3-1.3-1.9-2.7-1.9-4.4V109.6c0-1.9,0.6-3.4,1.9-4.5c1.3-1.2,2.7-1.8,4.4-1.8h35.4
		c1.8,0,3.4,0.6,4.5,1.8c1.2,1.2,1.8,2.7,1.8,4.5v130.8h75.8c1.9,0,3.4,0.6,4.7,1.9c1.3,1.3,1.9,2.8,1.9,4.7v26.8
		c0,1.9-0.6,3.4-1.9,4.5c-1.3,1.2-2.8,1.8-4.7,1.8h-117.5C1518.5,280.1,1517.1,279.5,1515.8,278.3z"/>
	<path class="st1" d="M1687.6,278.3c-1.3-1.3-1.9-2.7-1.9-4.4V109.6c0-1.9,0.6-3.4,1.9-4.5c1.3-1.2,2.7-1.8,4.4-1.8h35.4
		c1.9,0,3.4,0.6,4.5,1.8c1.2,1.2,1.8,2.7,1.8,4.5v130.8h75.8c1.9,0,3.4,0.6,4.7,1.9c1.3,1.3,1.9,2.8,1.9,4.7v26.8
		c0,1.9-0.6,3.4-1.9,4.5c-1.3,1.2-2.8,1.8-4.7,1.8H1692C1690.3,280.1,1688.8,279.5,1687.6,278.3z"/>
</g>
</svg>
